<svg width="150" height="150" viewBox="0 0 150 150" fill="none" xmlns="http://www.w3.org/2000/svg">
<path d="M119.406 71.8196L88.992 63.1313V35.6999C88.992 26.4245 81.4674 18.8999 72.192 18.8999C62.9214 18.8999 55.3968 26.4245 55.3968 35.6999V84.0689L50.4645 79.1399C43.9125 72.5774 33.2718 72.5891 26.7072 79.1399C20.1552 85.7024 20.1552 96.3395 26.7072 102.897L54.7056 130.899H118.969L127.97 85.8812C129.183 79.8425 125.327 73.5143 119.404 71.8187L119.406 71.8196ZM109.792 119.697H59.3589L34.6299 94.9793C32.4537 92.8031 32.4537 89.2478 34.6299 87.0608C36.819 84.8717 40.3722 84.8788 42.5613 87.0608L66.6 111.101V35.6987C66.6 32.6039 69.0984 30.0995 72.1944 30.0995C75.2835 30.0995 77.7936 32.6038 77.7936 35.6987V71.5847L117.163 82.8287L109.792 119.697Z" fill="#434343"/>
<path d="M46.998 25.9678C32.6589 30.3742 19.1472 38.2057 7.80005 49.5601L15.7194 57.4786C24.8412 48.3568 35.5803 41.881 47.0004 37.8463L46.998 25.9678Z" fill="#434343"/>
<path d="M97.3981 24.5005V36.0505C110.912 39.7747 123.682 46.8787 134.28 57.4771L142.199 49.5598C129.386 36.7513 113.812 28.4707 97.3975 24.5005H97.3981Z" fill="#434343"/>
</svg>
