<svg width="600" height="600" viewBox="0 0 600 600" fill="none" xmlns="http://www.w3.org/2000/svg">
<g clip-path="url(#clip0_1263_467)">
<path fill-rule="evenodd" clip-rule="evenodd" d="M355 325C381.522 325 406.957 314.464 425.711 295.711C444.464 276.957 455 251.522 455 225C455 198.478 444.464 173.043 425.711 154.289C406.957 135.536 381.522 125 355 125L261 125C247.193 125 236 136.193 236 150V175L275 175V395H325V175H355C368.261 175 380.979 180.268 390.355 189.645C399.732 199.021 405 211.739 405 225C405 238.261 399.732 250.979 390.355 260.355C380.979 269.732 368.261 275 355 275V325ZM174.289 304.289C193.043 285.536 218.478 275 245 275V325C231.739 325 219.021 330.268 209.645 339.645C200.268 349.021 195 361.739 195 375C195 388.261 200.268 400.979 209.645 410.355C219.021 419.732 231.739 425 245 425H435V450C435 463.807 423.807 475 410 475H245C218.478 475 193.043 464.464 174.289 445.711C155.536 426.957 145 401.522 145 375C145 348.478 155.536 323.043 174.289 304.289Z" fill="url(#paint0_linear_1263_467)"/>
<rect x="5" y="5" width="590" height="590" rx="95" stroke="black" stroke-width="10"/>
</g>
<defs>
<linearGradient id="paint0_linear_1263_467" x1="572.667" y1="600" x2="0" y2="0" gradientUnits="userSpaceOnUse">
<stop stop-color="#5C5C5C"/>
<stop offset="1" stop-color="#ADADAD"/>
</linearGradient>
<clipPath id="clip0_1263_467">
<rect width="600" height="600" fill="white"/>
</clipPath>
</defs>
</svg>
