<svg width="90" height="90" viewBox="0 0 90 90" fill="none" xmlns="http://www.w3.org/2000/svg">
<path d="M72 12H18C14.685 12 12 14.685 12 18V72C12 75.315 14.685 78 18 78H72C75.315 78 78 75.315 78 72V18C78 14.685 75.315 12 72 12ZM67.626 63H49.833V62.001L54 58.335V37.41L43.767 63H42.168L30.75 37.209V55.47L35.97 62.001V63H22.374V62.001L27.771 55.47V33.744L22.974 27.747C22.974 27.747 22.974 26.88 22.974 27.015H36.102L46.299 49.074L55.095 27.015H67.557V27.747L63 31.578V58.335L67.626 62.001V63Z" fill="#434343"/>
</svg>
