<svg width="150" height="150" viewBox="0 0 150 150" fill="none" xmlns="http://www.w3.org/2000/svg">
<path d="M85.3199 45.6431C82.2001 45.6431 79.6799 48.1635 79.6799 51.2831V98.8031C79.6799 101.923 82.2004 104.443 85.3199 104.443C88.4395 104.443 90.9599 101.923 90.9599 98.8031V51.2831C90.8402 48.1626 88.3199 45.6431 85.3199 45.6431Z" fill="black"/>
<path d="M64.68 54.4033C61.5603 54.4033 59.04 56.9237 59.04 60.0433V90.2833C59.04 93.4031 61.5605 95.9233 64.68 95.9233C67.7996 95.9233 70.32 93.4028 70.32 90.2833V59.9233C70.32 56.8028 67.7996 54.4028 64.68 54.4028V54.4033Z" fill="black"/>
<path d="M105.84 54.4033C102.72 54.4033 100.2 56.9237 100.2 60.0433V90.2833C100.2 93.4031 102.72 95.9233 105.84 95.9233C108.96 95.9233 111.48 93.4028 111.48 90.2833L111.479 59.9233C111.479 56.8028 108.96 54.4028 105.84 54.4028L105.84 54.4033Z" fill="black"/>
<path d="M44.16 63.043C41.0402 63.043 38.52 65.5634 38.52 68.683V81.5234C38.52 84.6432 41.0404 87.1634 44.16 87.1634C47.2796 87.1634 49.8 84.643 49.8 81.5234V68.683C49.8 65.5632 47.2804 63.043 44.16 63.043Z" fill="black"/>
<path d="M23.64 54.4033C20.5202 54.4033 18 56.9237 18 60.0433V90.2833C18 93.4031 20.5204 95.9233 23.64 95.9233C26.7598 95.9233 29.28 93.4028 29.28 90.2833V59.9233C29.1595 56.8028 26.7596 54.4028 23.64 54.4028V54.4033Z" fill="black"/>
<path d="M126.36 63.043C123.24 63.043 120.72 65.5634 120.72 68.683V81.5234C120.72 84.6432 123.24 87.1634 126.36 87.1634C129.48 87.1634 132 84.643 132 81.5234V68.683C132 65.5632 129.48 63.043 126.36 63.043Z" fill="black"/>
</svg>
