<svg width="50" height="50" viewBox="0 0 50 50" fill="none" xmlns="http://www.w3.org/2000/svg">
<rect width="50" height="50" rx="5" fill="black" fill-opacity="0.15"/>
<rect x="23.1426" y="16.457" width="3.71428" height="17.0857" fill="black"/>
<path d="M27.5998 26.8571C29.5699 26.8571 31.4594 26.0745 32.8525 24.6814C34.2457 23.2882 35.0283 21.3988 35.0283 19.4286C35.0283 17.4584 34.2457 15.5689 32.8525 14.1758C31.4594 12.7827 29.5699 12 27.5998 12L27.5998 15.7143C28.5848 15.7143 29.5296 16.1056 30.2261 16.8022C30.9227 17.4987 31.314 18.4435 31.314 19.4286C31.314 20.4137 30.9227 21.3584 30.2261 22.055C29.5296 22.7515 28.5848 23.1429 27.5998 23.1429L27.5998 26.8571Z" fill="black"/>
<path d="M22.3998 23.1429C20.4296 23.1429 18.5401 23.9255 17.147 25.3186C15.7538 26.7118 14.9712 28.6012 14.9712 30.5714C14.9712 32.5416 15.7538 34.4311 17.147 35.8242C18.5401 37.2173 20.4296 38 22.3998 38L22.3998 34.2857C21.4147 34.2857 20.4699 33.8944 19.7734 33.1978C19.0768 32.5013 18.6855 31.5565 18.6855 30.5714C18.6855 29.5863 19.0768 28.6416 19.7734 27.945C20.4699 27.2485 21.4147 26.8571 22.3998 26.8571L22.3998 23.1429Z" fill="black"/>
<rect x="22.3999" y="34.2856" width="12.6286" height="3.71428" fill="black"/>
<rect x="20.2456" y="12" width="7.35428" height="3.71428" fill="black"/>
</svg>
