<svg preserveAspectRatio="none" width="100%" height="100%" overflow="visible" style="display: block;" viewBox="0 0 21 26" fill="none" xmlns="http://www.w3.org/2000/svg">
<g id="Logo">
<rect id="Logo part" x="8.17188" y="4.45703" width="3.71428" height="17.0857" fill="var(--fill-0, black)" fill-opacity="0.9"/>
<path id="Ellipse 6" d="M12.629 14.8571C14.5992 14.8571 16.4887 14.0745 17.8818 12.6814C19.275 11.2882 20.0576 9.39875 20.0576 7.42857C20.0576 5.45839 19.275 3.56891 17.8818 2.17578C16.4887 0.782652 14.5992 3.83608e-07 12.6291 0L12.629 3.71429C13.6141 3.71429 14.5589 4.10561 15.2554 4.80218C15.952 5.49874 16.3433 6.44348 16.3433 7.42857C16.3433 8.41366 15.952 9.35841 15.2554 10.055C14.5589 10.7515 13.6141 11.1429 12.629 11.1429L12.629 14.8571Z" fill="var(--fill-0, black)" fill-opacity="0.9"/>
<path id="Ellipse 7" d="M7.42857 11.1429C5.45839 11.1429 3.56891 11.9255 2.17578 13.3186C0.782651 14.7118 2.60823e-07 16.6012 8.85848e-08 18.5714C-8.36537e-08 20.5416 0.78265 22.4311 2.17578 23.8242C3.5689 25.2173 5.45839 26 7.42857 26L7.42857 22.2857C6.44348 22.2857 5.49874 21.8944 4.80217 21.1978C4.10561 20.5013 3.71429 19.5565 3.71429 18.5714C3.71429 17.5863 4.10561 16.6416 4.80217 15.945C5.49874 15.2485 6.44348 14.8571 7.42857 14.8571L7.42857 11.1429Z" fill="var(--fill-0, black)" fill-opacity="0.9"/>
<rect id="Logo part_2" x="7.42871" y="22.2856" width="12.6286" height="3.71428" fill="var(--fill-0, black)" fill-opacity="0.9"/>
<rect id="Logo part_3" x="5.27441" y="3.24713e-07" width="7.35428" height="3.71428" fill="var(--fill-0, black)" fill-opacity="0.9"/>
</g>
</svg>
