<svg preserveAspectRatio="none" width="100%" height="100%" overflow="visible" style="display: block;" viewBox="0 0 143 22" fill="none" xmlns="http://www.w3.org/2000/svg">
<path id="Vector" d="M2.61977 16.7349H0L6.17754 0H9.34652L15.5354 16.7349H12.8813L11.1768 11.9961H4.35861L2.61977 16.7349ZM5.07937 9.95845H10.4447L7.77921 2.28943H7.73348L5.07937 9.95845ZM17.6747 0H20.2027V16.7349H17.6747V0ZM28.9773 16.7349V0H39.399V2.12916H31.5053V7.18852H38.747V9.30603H31.5053V16.7349H28.9773ZM40.646 16.7349L46.629 8.15009L40.9089 0H44.0206L48.0818 6.13544L52.3604 0H55.3459L49.5347 8.20721L55.6205 16.7349H52.4632L48.0818 10.2676L43.6545 16.7349H40.646ZM62.8622 0H65.3902V16.7349H62.8622V0ZM68.6163 16.7349V4.61295H71.0071V6.82224C71.7699 5.15085 72.9786 4.31544 74.6336 4.31544C75.3964 4.31544 76.0635 4.43734 76.6357 4.68171C77.2077 4.91813 77.6615 5.254 77.9969 5.68904C78.3402 6.12379 78.5918 6.61993 78.752 7.17715C78.9121 7.72642 78.9922 8.34076 78.9922 9.01989V16.7349H76.6014V9.42054C76.6014 7.39055 75.7892 6.37584 74.1645 6.37584C73.2495 6.37584 72.4981 6.76882 71.9111 7.55479C71.3238 8.33309 71.0301 9.4626 71.0301 10.943V16.7349H68.6163ZM88.4759 8.25295C88.4149 7.57383 88.1403 7.06633 87.6521 6.73046C87.1716 6.39488 86.6073 6.22694 85.959 6.22694C85.387 6.22694 84.8875 6.37584 84.4604 6.67335C84.0409 6.97086 83.8313 7.34878 83.8313 7.80655C83.8313 8.59252 84.4871 9.15344 85.7988 9.48931C86.5309 9.66463 87.0688 9.79818 87.4118 9.88997C89.8067 10.508 91.004 11.6335 91.004 13.2666C91.004 13.8619 90.8591 14.4074 90.5692 14.9036C90.2872 15.3917 89.9095 15.7887 89.4366 16.0939C88.9715 16.3991 88.4529 16.6318 87.881 16.7921C87.309 16.96 86.7254 17.0441 86.1308 17.0441C85.6579 17.0441 85.2002 17.002 84.758 16.9182C84.3155 16.8341 83.8808 16.6929 83.4536 16.4945C83.0265 16.2885 82.6491 16.0368 82.3211 15.739C81.9931 15.4338 81.7188 15.0522 81.4976 14.5944C81.284 14.1366 81.1542 13.6215 81.1085 13.0492H83.4994C83.6291 13.7587 83.9151 14.2779 84.3576 14.6058C84.7997 14.934 85.4061 15.0982 86.1765 15.0982C86.5959 15.0982 86.981 15.0485 87.3318 14.9493C87.6828 14.8501 87.9838 14.6669 88.2357 14.3998C88.4873 14.1327 88.6131 13.8008 88.6131 13.4041C88.6131 13.2055 88.575 13.0301 88.4986 12.8776C88.4225 12.7173 88.3271 12.5874 88.2127 12.4883C88.0982 12.3814 87.942 12.2823 87.7438 12.1908C87.553 12.099 87.3738 12.0265 87.2059 11.9731C87.0458 11.9197 86.8362 11.8586 86.5769 11.7901C85.8522 11.6145 85.2802 11.4656 84.8608 11.3437C83.8464 11.0916 83.0265 10.6759 82.4012 10.096C81.7759 9.51602 81.4632 8.78347 81.4632 7.89805C81.4632 7.17317 81.6844 6.5361 82.1266 5.98655C82.569 5.42961 83.1333 5.0136 83.8197 4.73883C84.5138 4.45666 85.2535 4.31544 86.0391 4.31544C87.3357 4.31544 88.4225 4.65501 89.2995 5.33413C90.1764 6.01326 90.6799 6.9862 90.8094 8.25295H88.4759ZM95.786 2.5068H93.2577V0H95.786V2.5068ZM93.212 16.7349V4.61295H95.6258V16.7349H93.212ZM107.58 4.61295H110.04V15.6819C110.04 16.5977 109.884 17.418 109.571 18.1429C109.258 18.8755 108.831 19.4668 108.29 19.9172C107.756 20.3749 107.142 20.7222 106.448 20.9589C105.762 21.203 105.029 21.3252 104.251 21.3252C102.68 21.3252 101.376 20.9512 100.339 20.2033C99.3017 19.4554 98.7108 18.4481 98.5656 17.1813H100.957C101.17 18.6464 102.269 19.379 104.251 19.379C105.258 19.379 106.063 19.0852 106.665 18.4978C107.275 17.9179 107.58 17.0251 107.58 15.8191V14.3654H107.557C106.94 16.0368 105.628 16.8722 103.622 16.8722C101.937 16.8722 100.575 16.2885 99.538 15.1209C98.5086 13.9534 97.9937 12.4348 97.9937 10.5651C97.9937 8.71072 98.5049 7.20756 99.5266 6.05531C100.556 4.8954 101.921 4.31544 103.622 4.31544C104.659 4.31544 105.51 4.54816 106.173 5.01361C106.837 5.47138 107.298 6.02463 107.557 6.67335H107.58V4.61295ZM100.408 10.5651C100.408 11.3511 100.533 12.0646 100.785 12.7056C101.044 13.339 101.456 13.8619 102.021 14.2739C102.585 14.6782 103.268 14.8806 104.068 14.8806C104.602 14.8806 105.083 14.7928 105.51 14.6174C105.937 14.4341 106.284 14.1977 106.551 13.9076C106.818 13.6178 107.043 13.2819 107.226 12.9003C107.409 12.511 107.534 12.1257 107.603 11.7444C107.68 11.3551 107.718 10.9621 107.718 10.5651C107.718 10.092 107.638 9.61121 107.477 9.12303C107.325 8.63457 107.104 8.1805 106.814 7.7608C106.524 7.33344 106.139 6.9862 105.658 6.7191C105.178 6.44432 104.648 6.30707 104.068 6.30707C103.29 6.30707 102.616 6.50939 102.044 6.91374C101.479 7.31809 101.064 7.83724 100.797 8.47062C100.537 9.104 100.408 9.80216 100.408 10.5651ZM113.003 16.7349V0H115.394V6.82224C116.157 5.15085 117.365 4.31544 119.02 4.31544C119.783 4.31544 120.45 4.43734 121.022 4.68171C121.594 4.91813 122.048 5.254 122.383 5.68904C122.727 6.12379 122.978 6.61993 123.139 7.17715C123.299 7.72642 123.379 8.34076 123.379 9.01989V16.7349H120.988V9.42054C120.988 7.39055 120.176 6.37584 118.551 6.37584C117.636 6.37584 116.885 6.76882 116.297 7.55479C115.71 8.33309 115.417 9.4626 115.417 10.943V16.7349H113.003ZM129.156 12.9577C129.156 14.1784 129.671 14.7891 130.7 14.7891H131.524V16.758H130.346C129.118 16.758 128.218 16.4411 127.646 15.8077C127.074 15.1667 126.788 14.2969 126.788 13.1978V6.5361H124.935V4.61295H126.788V1.79699L129.156 0.743916V4.61295H131.501V6.5361H129.156V12.9577ZM140.344 8.25295C140.283 7.57383 140.008 7.06633 139.52 6.73046C139.04 6.39488 138.476 6.22694 137.827 6.22694C137.255 6.22694 136.756 6.37584 136.329 6.67335C135.909 6.97086 135.7 7.34878 135.7 7.80655C135.7 8.59252 136.355 9.15344 137.667 9.48931C138.399 9.66463 138.937 9.79818 139.28 9.88997C141.675 10.508 142.872 11.6335 142.872 13.2666C142.872 13.8619 142.727 14.4074 142.438 14.9036C142.155 15.3917 141.778 15.7887 141.305 16.0939C140.84 16.3991 140.321 16.6318 139.749 16.7921C139.177 16.96 138.594 17.0441 137.999 17.0441C137.526 17.0441 137.068 17.002 136.626 16.9182C136.184 16.8341 135.749 16.6929 135.322 16.4945C134.895 16.2885 134.517 16.0368 134.189 15.739C133.862 15.4338 133.587 15.0522 133.366 14.5944C133.152 14.1366 133.022 13.6215 132.977 13.0492H135.368C135.497 13.7587 135.783 14.2779 136.226 14.6058C136.668 14.934 137.274 15.0982 138.045 15.0982C138.464 15.0982 138.849 15.0485 139.2 14.9493C139.551 14.8501 139.852 14.6669 140.104 14.3998C140.356 14.1327 140.481 13.8008 140.481 13.4041C140.481 13.2055 140.443 13.0301 140.367 12.8776C140.291 12.7173 140.195 12.5874 140.081 12.4883C139.966 12.3814 139.81 12.2823 139.612 12.1908C139.421 12.099 139.242 12.0265 139.074 11.9731C138.914 11.9197 138.704 11.8586 138.445 11.7901C137.72 11.6145 137.148 11.4656 136.729 11.3437C135.715 11.0916 134.895 10.6759 134.269 10.096C133.644 9.51602 133.331 8.78347 133.331 7.89805C133.331 7.17317 133.553 6.5361 133.995 5.98655C134.437 5.42961 135.002 5.0136 135.688 4.73883C136.382 4.45666 137.122 4.31544 137.907 4.31544C139.204 4.31544 140.291 4.65501 141.168 5.33413C142.045 6.01326 142.548 6.9862 142.678 8.25295H140.344Z" fill="var(--fill-0, #131A24)"/>
</svg>
