<svg role="img" viewBox="0 0 24 24" xmlns="http://www.w3.org/2000/svg"><title>Blender</title><path d="M12.51 13.214c.046-.8.438-1.506 1.03-2.006a3.424 3.424 0 0 1 2.212-.79c.85 0 1.631.3 2.211.79.592.5.983 1.206 1.028 2.005.045.823-.285 1.586-.865 2.153a3.389 3.389 0 0 1-2.374.938 3.393 3.393 0 0 1-2.376-.938c-.58-.567-.91-1.33-.865-2.152M7.35 14.831c.006.314.106.922.256 1.398a7.372 7.372 0 0 0 1.593 2.757 8.227 8.227 0 0 0 2.787 2.001 8.947 8.947 0 0 0 3.66.76 8.964 8.964 0 0 0 3.657-.772 8.285 8.285 0 0 0 2.785-2.01 7.428 7.428 0 0 0 1.592-2.762 6.964 6.964 0 0 0 .25-3.074 7.123 7.123 0 0 0-1.016-2.779 7.764 7.764 0 0 0-2.044-2.209 8.469 8.469 0 0 0-3.066-1.411 8.901 8.901 0 0 0-3.433-.144c-.53.066-1.052.181-1.558.342a.938.938 0 0 1-.727-.072 1.009 1.009 0 0 1-.383-.509 1.04 1.04 0 0 1-.057-.672l.068-.276a9.148 9.148 0 0 0-1.016.49 8.824 8.824 0 0 0-2.301 1.864 7.981 7.981 0 0 0-1.796 2.819 7.304 7.304 0 0 0-.448 3.016c.022.457.09.911.205 1.353a.955.955 0 0 1-.052.687.99.99 0 0 1-.503.385 1.002 1.002 0 0 1-.694.052L.515 14.87a1.022 1.022 0 0 1-.505-.385.98.98 0 0 1-.052-.686c.149-.58.303-1.16.478-1.732a9.149 9.149 0 0 1 .745-1.686 9.667 9.667 0 0 1 1.163-1.587c.433-.463.908-.888 1.419-1.268a10.556 10.556 0 0 1 1.719-1.102c.6-.317 1.227-.59 1.87-.816a11.447 11.447 0 0 1 1.98-.505 12.34 12.34 0 0 1 2.046-.167c.702 0 1.403.06 2.096.178.693.118 1.378.292 2.044.519a11.98 11.98 0 0 1 1.936.823c.619.312 1.211.677 1.766 1.093.553.416 1.068.88 1.538 1.388.47.508.893 1.058 1.263 1.645a9.663 9.663 0 0 1 .892 1.835c.23.627.412 1.274.543 1.932.131.658.213 1.327.241 2 .028.672.002 1.347-.078 2.016a10.073 10.073 0 0 1-.464 1.968 9.815 9.815 0 0 1-.858 1.854 9.36 9.36 0 0 1-1.235 1.623 8.951 8.951 0 0 1-1.567 1.341 8.482 8.482 0 0 1-1.855.95 8.162 8.162 0 0 1-2.057.432c-.707.052-1.418.034-2.122-.054a8.12 8.12 0 0 1-2.07-.535 7.764 7.764 0 0 1-1.917-1.05 7.212 7.212 0 0 1-1.581-1.551 6.626 6.626 0 0 1-1.05-1.956 6.012 6.012 0 0 1-.362-2.138c0-.124.003-.248.01-.372l.015-.362c.01-.241.027-.482.052-.723.024-.24.056-.48.096-.718a5.872 5.872 0 0 1 .16-.709.983.983 0 0 1 .421-.528 1.051 1.051 0 0 1 .681-.089 1.03 1.03 0 0 1 .614.335c.18.173.308.395.368.643a4.57 4.57 0 0 0 .269.881c.093.26.203.514.33.758.254.488.569.94.937 1.346a5.653 5.653 0 0 0 1.187 1.031 5.818 5.818 0 0 0 1.397.663 6.069 6.069 0 0 0 1.534.254 6.158 6.158 0 0 0 1.544-.147 5.907 5.907 0 0 0 1.463-.523 5.631 5.631 0 0 0 1.28-.849 5.364 5.364 0 0 0 1.004-1.118 5.199 5.199 0 0 0 .655-1.316 5.043 5.043 0 0 0 .269-1.458 4.942 4.942 0 0 0-.18-1.47 4.822 4.822 0 0 0-.614-1.355 4.685 4.685 0 0 0-.98-1.137 4.567 4.567 0 0 0-1.265-.79 4.467 4.467 0 0 0-1.463-.348 4.414 4.414 0 0 0-1.495.149 4.36 4.36 0 0 0-1.371.627 4.3 4.3 0 0 0-1.085 1.025 4.25 4.25 0 0 0-.687 1.336 4.2 4.2 0 0 0-.213 1.528 4.147 4.147 0 0 0 .322 1.515 4.073 4.073 0 0 0 .826 1.288 3.998 3.998 0 0 0 1.208.901c.458.24.957.406 1.473.492a4.413 4.413 0 0 0 1.54.03 4.365 4.365 0 0 0 1.485-.535 4.32 4.32 0 0 0 1.23-1.045 4.277 4.277 0 0 0 .787-1.441 4.236 4.236 0 0 0 .178-1.644 4.196 4.196 0 0 0-.476-1.608 4.155 4.155 0 0 0-1.043-1.328 4.115 4.115 0 0 0-1.46-.835 4.082 4.082 0 0 0-1.729-.205 4.048 4.048 0 0 0-1.665.617 4.01 4.01 0 0 0-1.277 1.363 3.973 3.973 0 0 0-.538 1.768 3.94 3.94 0 0 0 .18 1.823 3.906 3.906 0 0 0 .965 1.572 3.873 3.873 0 0 0 1.495 1.05 3.846 3.846 0 0 0 1.853.258 3.819 3.819 0 0 0 1.756-.775 3.79 3.79 0 0 0 1.197-1.497 3.761 3.761 0 0 0 .392-1.94 3.734 3.734 0 0 0-.616-1.863 3.706 3.706 0 0 0-1.495-1.324 3.678 3.678 0 0 0-1.95-.438 3.65 3.65 0 0 0-1.897.655 3.621 3.621 0 0 0-1.304 1.599 3.593 3.593 0 0 0-.342 2.011 3.565 3.565 0 0 0 .758 1.916 3.536 3.536 0 0 0 1.653 1.197 3.508 3.508 0 0 0 2.099.15 3.48 3.48 0 0 0 1.858-1.028 3.452 3.452 0 0 0 .976-1.809 3.425 3.425 0 0 0-.122-2.09 3.398 3.398 0 0 0-1.376-1.582 3.37 3.37 0 0 0-2.004-.598 3.342 3.342 0 0 0-1.97.696 3.313 3.313 0 0 0-1.184 1.688 3.285 3.285 0 0 0-.102 2.114 3.256 3.256 0 0 0 1.026 1.743 3.228 3.228 0 0 0 1.802.905 3.2 3.2 0 0 0 1.953-.405 3.17 3.17 0 0 0 1.35-1.39 3.142 3.142 0 0 0 .385-1.955 3.114 3.114 0 0 0-.706-1.817 3.086 3.086 0 0 0-1.614-1.065 3.058 3.058 0 0 0-1.878.113 3.029 3.029 0 0 0-1.489 1.079 3.001 3.001 0 0 0-.565 1.79 2.973 2.973 0 0 0 .4 1.86 2.945 2.945 0 0 0 1.412 1.179 2.917 2.917 0 0 0 1.775.205 2.888 2.888 0 0 0 1.62-.832 2.86 2.86 0 0 0 .792-1.602 2.832 2.832 0 0 0-.228-1.738 2.804 2.804 0 0 0-1.208-1.26 2.776 2.776 0 0 0-1.673-.35 2.748 2.748 0 0 0-1.568.626 2.72 2.72 0 0 0-.92 1.397 2.692 2.692 0 0 0 .057 1.663 2.664 2.664 0 0 0 1.002 1.323 2.635 2.635 0 0 0 1.568.543 2.607 2.607 0 0 0 1.515-.425 2.579 2.579 0 0 0 1.045-1.186 2.551 2.551 0 0 0 .243-1.587 2.523 2.523 0 0 0-.795-1.408 2.495 2.495 0 0 0-1.463-.712 2.467 2.467 0 0 0-1.564.229 2.439 2.439 0 0 0-1.17.975 2.411 2.411 0 0 0-.404 1.502 2.383 2.383 0 0 0 .59 1.458 2.355 2.355 0 0 0 1.357.834 2.327 2.327 0 0 0 1.51-.116 2.299 2.299 0 0 0 1.203-.826 2.271 2.271 0 0 0 .488-1.402 2.243 2.243 0 0 0-.386-1.382 2.215 2.215 0 0 0-1.25-.888 2.187 2.187 0 0 0-1.455.003 2.159 2.159 0 0 0-1.172.675 2.131 2.131 0 0 0-.572 1.29 2.103 2.103 0 0 0 .182 1.35 2.075 2.075 0 0 0 1.042.94 2.047 2.047 0 0 0 1.4.111 2.019 2.019 0 0 0 1.14-.572 1.991 1.991 0 0 0 .655-1.175 1.963 1.963 0 0 0-.022-1.295 1.935 1.935 0 0 0-.834-1.038 1.907 1.907 0 0 0-1.345-.2 1.879 1.879 0 0 0-1.109.468 1.851 1.851 0 0 0-.737 1.058 1.823 1.823 0 0 0 .023 1.238 1.795 1.795 0 0 0 .824 1.014 1.767 1.767 0 0 0 1.287.23 1.739 1.739 0 0 0 1.075-.364 1.711 1.711 0 0 0 .62-.944 1.683 1.683 0 0 0-.068-1.178 1.655 1.655 0 0 0-.715-.89 1.627 1.627 0 0 0-1.228-.18 1.599 1.599 0 0 0-1.04.26 1.571 1.571 0 0 0-.604.826 1.543 1.543 0 0 0 .113 1.115 1.515 1.515 0 0 0 .806.766 1.487 1.487 0 0 0 1.17.06 1.459 1.459 0 0 0 1.005-.155 1.431 1.431 0 0 0 .588-.712 1.403 1.403 0 0 0 .045-1.058 1.375 1.375 0 0 0-.597-.76 1.347 1.347 0 0 0-1.11-.09 1.319 1.319 0 0 0-.871.05 1.291 1.291 0 0 0-.572.596 1.263 1.263 0 0 0 .026.994 1.235 1.235 0 0 0 .686.643 1.207 1.207 0 0 0 1.05.003 1.179 1.179 0 0 0 .836.047 1.151 1.151 0 0 0 .54-.48 1.123 1.123 0 0 0-.038-.929 1.095 1.095 0 0 0-.478-.636 1.067 1.067 0 0 0-.994-.017 1.039 1.039 0 0 0-.835-.059 1.011 1.011 0 0 0-.507.362.983.983 0 0 0 .145.867.955.955 0 0 0 .575.481.927.927 0 0 0 .933-.034.899.899 0 0 0 .67.057.871.871 0 0 0 .473-.246.843.843 0 0 0-.256-.799.815.815 0 0 0-.475-.363.787.787 0 0 0-.871-.075.759.759 0 0 0-.44.128.731.731 0 0 0 .361.7.703.703 0 0 0 .817.025.675.675 0 0 0 .469.067.647.647 0 0 0 .405-.112.619.619 0 0 0-.372-.634.591.591 0 0 0-.476-.239.563.563 0 0 0-.747-.186.535.535 0 0 0 .45.573.507.507 0 0 0 .76.076.479.479 0 0 0 .337.078.451.451 0 0 0-.237-.397.423.423 0 0 0-.476-.113.395.395 0 0 0-.653-.268.367.367 0 0 0 .532.465.339.339 0 0 0 .644.106.311.311 0 0 0-.1-.26.283.283 0 0 0-.475-.158.255.255 0 0 0-.539-.262.227.227 0 0 0 .395.335.199.199 0 0 0 .467.134.171.171 0 0 0-.03-.095.143.143 0 0 0-.404-.215.115.115 0 0 0-.413-.255.087.087 0 0 0 .245.28.059.059 0 0 0 .305.128"/></svg>
