<svg role="img" viewBox="0 0 24 24" xmlns="http://www.w3.org/2000/svg"><title>Adobe Photoshop</title><path d="M19.75 0H4.25A4.254 4.254 0 000 4.25v15.5A4.254 4.254 0 004.25 24h15.5A4.254 4.254 0 0024 19.75V4.25A4.254 4.254 0 0019.75 0zM7.5 6.4h3.8c2.8 0 4.2 1.5 4.2 3.5 0 2.4-1.7 3.7-4.4 3.7H9.6v3.8H7.5V6.4zm7.9 5.3c1.5 0 2.3.9 2.3 2.2s-.8 2.2-2.3 2.2-2.3-.9-2.3-2.2.8-2.2 2.3-2.2zm0 3.6c.9 0 1.5-.6 1.5-1.4s-.6-1.4-1.5-1.4-1.5.6-1.5 1.4.6 1.4 1.5 1.4zM9.6 8.3v3.6h1.6c1.6 0 2.5-.7 2.5-1.8S12.8 8.3 11.2 8.3H9.6z"/></svg>
