<svg role="img" viewBox="0 0 24 24" xmlns="http://www.w3.org/2000/svg"><title>Adobe Premiere Pro</title><path d="M19.75 0H4.25A4.254 4.254 0 000 4.25v15.5A4.254 4.254 0 004.25 24h15.5A4.254 4.254 0 0024 19.75V4.25A4.254 4.254 0 0019.75 0zM7.5 6.4h4.105c2.851 0 4.658 1.645 4.658 4.184 0 2.937-2.146 4.645-5.344 4.645H9.605V18.1H7.5V6.4zm5.368 4.184c0-1.461-.878-2.205-2.497-2.205H9.605v4.645h.766c1.619 0 2.497-.878 2.497-2.44zM16.695 11.5c.946 0 1.694.748 1.694 1.694s-.748 1.693-1.694 1.693-1.694-.747-1.694-1.693.748-1.694 1.694-1.694z"/></svg>
